<?xml version="1.0" standalone="no"?>
<!DOCTYPE svg PUBLIC "-//W3C//DTD SVG 20010904//EN"
 "http://www.w3.org/TR/2001/REC-SVG-20010904/DTD/svg10.dtd">
<svg version="1.0" xmlns="http://www.w3.org/2000/svg"
 width="125.000000pt" height="125.000000pt" viewBox="0 0 125.000000 125.000000"
 preserveAspectRatio="xMidYMid meet">
<metadata>
Created by potrace 1.14, written by Peter Selinger 2001-2017
</metadata>
<g transform="translate(0.000000,125.000000) scale(0.100000,-0.100000)"
fill="#000000" stroke="none">
<path d="M493 1164 c-4 -10 0 -22 9 -28 9 -6 25 -17 36 -25 11 -8 23 -23 26
-34 6 -23 39 -19 44 5 2 10 -8 22 -25 30 -15 7 -34 26 -41 41 -15 30 -39 36
-49 11z"/>
<path d="M626 1165 c-7 -20 0 -35 18 -35 6 0 26 -15 44 -33 l32 -33 -34 -33
c-34 -33 -37 -34 -95 -28 -61 7 -79 -3 -61 -33 6 -10 15 -11 32 -4 13 5 40 10
61 9 32 0 44 7 83 46 l46 47 -33 31 c-18 17 -37 41 -43 54 -14 27 -41 34 -50
12z m34 -9 c0 -3 -4 -8 -10 -11 -5 -3 -10 -1 -10 4 0 6 5 11 10 11 6 0 10 -2
10 -4z"/>
<path d="M404 1142 c-6 -4 -8 -59 -6 -139 l4 -132 44 -41 c45 -41 50 -42 149
-41 48 0 52 -2 116 -65 l67 -66 0 -157 c0 -93 -4 -161 -10 -169 -7 -8 -7 -17
2 -27 26 -31 57 -8 38 28 -5 10 -9 28 -8 40 1 12 2 84 1 159 l-1 138 -72 70
-73 70 -76 0 c-75 0 -77 1 -116 38 l-39 38 2 99 c1 55 5 109 9 121 7 22 -14
47 -31 36z m16 -22 c0 -5 -5 -10 -11 -10 -5 0 -7 5 -4 10 3 6 8 10 11 10 2 0
4 -4 4 -10z"/>
<path d="M794 1125 c-4 -8 -2 -21 3 -28 18 -24 4 -53 -56 -116 l-61 -64 -74 6
c-77 6 -95 -2 -76 -33 6 -10 15 -11 32 -4 13 5 47 10 75 9 52 -1 53 0 122 70
63 64 69 74 75 123 6 48 5 52 -14 52 -11 0 -23 -7 -26 -15z m31 -5 c3 -5 1
-10 -4 -10 -6 0 -11 5 -11 10 0 6 2 10 4 10 3 0 8 -4 11 -10z"/>
<path d="M907 1015 c6 -73 5 -77 -22 -105 -27 -28 -28 -32 -27 -137 0 -62 -5
-114 -11 -121 -7 -9 -6 -18 6 -30 16 -15 18 -15 34 1 13 13 15 20 5 29 -8 8
-12 48 -12 116 0 100 1 106 28 137 24 27 29 40 27 81 -1 27 2 55 8 61 14 18 1
43 -23 43 -19 0 -19 -4 -13 -75z m23 55 c0 -5 -5 -10 -11 -10 -5 0 -7 5 -4 10
3 6 8 10 11 10 2 0 4 -4 4 -10z m-50 -430 c0 -5 -4 -10 -10 -10 -5 0 -10 5
-10 10 0 6 5 10 10 10 6 0 10 -4 10 -10z"/>
<path d="M226 1014 c-7 -19 1 -34 18 -34 23 0 56 -45 56 -76 0 -21 10 -39 31
-60 17 -16 35 -39 40 -51 5 -14 17 -23 29 -23 29 0 26 38 -3 49 -36 14 -77 68
-77 101 0 17 -10 40 -25 56 -14 15 -25 33 -25 40 0 19 -37 17 -44 -2z"/>
<path d="M1006 994 c-4 -9 -2 -22 4 -29 15 -18 -7 -54 -37 -61 -29 -8 -38 -35
-17 -51 13 -9 21 -10 31 -1 7 6 11 13 8 16 -3 3 5 16 17 29 24 25 47 82 40
101 -6 18 -39 15 -46 -4z m-26 -118 c0 -3 -4 -8 -10 -11 -5 -3 -10 -1 -10 4 0
6 5 11 10 11 6 0 10 -2 10 -4z"/>
<path d="M766 909 c-9 -18 -16 -42 -16 -54 0 -36 29 -85 51 -85 29 0 25 38 -6
50 -17 6 -23 15 -20 30 6 29 14 40 31 40 21 0 14 44 -7 48 -11 2 -23 -9 -33
-29z m44 7 c0 -3 -4 -8 -10 -11 -5 -3 -10 -1 -10 4 0 6 5 11 10 11 6 0 10 -2
10 -4z m0 -120 c0 -3 -4 -8 -10 -11 -5 -3 -10 -1 -10 4 0 6 5 11 10 11 6 0 10
-2 10 -4z"/>
<path d="M157 913 c-14 -14 -6 -42 14 -48 11 -4 58 -44 104 -89 l82 -82 124 1
124 1 48 -45 49 -46 -4 -115 c-3 -117 -3 -116 33 -111 7 0 9 10 4 24 -3 12 -7
64 -9 115 l-2 92 -54 55 -54 55 -126 0 -125 0 -81 83 c-45 45 -84 90 -87 100
-6 17 -28 23 -40 10z m563 -513 c0 -5 -5 -10 -11 -10 -5 0 -7 5 -4 10 3 6 8
10 11 10 2 0 4 -4 4 -10z"/>
<path d="M1061 888 c-5 -13 -34 -48 -65 -78 l-56 -54 0 -81 0 -81 -43 -42 -44
-43 1 -120 c1 -67 -2 -123 -6 -126 -13 -7 -9 -41 5 -46 29 -10 37 5 31 56 -4
28 -7 89 -8 136 l-1 86 43 42 43 42 0 80 0 80 59 61 c32 33 62 60 67 60 19 1
33 18 27 33 -9 24 -43 21 -53 -5z m34 2 c3 -5 1 -10 -4 -10 -6 0 -11 5 -11 10
0 6 2 10 4 10 3 0 8 -4 11 -10z"/>
<path d="M121 796 c-9 -11 -8 -17 5 -28 9 -7 54 -48 99 -90 l81 -78 110 0 c61
0 115 -5 120 -10 7 -7 17 -5 30 4 17 13 18 16 3 31 -11 12 -22 13 -40 7 -13
-5 -67 -8 -119 -7 l-96 1 -72 73 c-40 41 -72 79 -72 86 0 7 -7 16 -16 19 -21
8 -20 8 -33 -8z m439 -186 c0 -5 -2 -10 -4 -10 -3 0 -8 5 -11 10 -3 6 -1 10 4
10 6 0 11 -4 11 -10z"/>
<path d="M1123 793 c-3 -10 -29 -42 -57 -71 -28 -29 -50 -55 -48 -58 2 -2 0
-18 -3 -35 -8 -34 7 -52 32 -42 10 4 13 16 8 42 -5 30 -1 41 22 66 15 17 43
41 61 53 35 25 41 46 16 56 -22 9 -24 8 -31 -11z m27 -13 c0 -5 -5 -10 -11
-10 -5 0 -7 5 -4 10 3 6 8 10 11 10 2 0 4 -4 4 -10z"/>
<path d="M1141 669 c-12 -19 -18 -47 -17 -75 1 -24 -1 -45 -4 -45 -3 -1 -25
-2 -50 -3 -38 -1 -52 -7 -87 -41 l-42 -40 -3 -130 c-2 -71 -5 -136 -8 -143 -3
-8 3 -19 13 -25 22 -15 40 8 27 32 -4 9 -8 68 -8 131 l0 115 36 38 c33 34 40
37 94 37 l58 0 0 60 c0 55 2 61 24 70 18 7 23 14 19 29 -8 30 -30 26 -52 -10z
m39 1 c0 -5 -2 -10 -4 -10 -3 0 -8 5 -11 10 -3 6 -1 10 4 10 6 0 11 -4 11 -10z"/>
<path d="M74 677 c-3 -9 -1 -24 4 -34 5 -10 8 -32 6 -50 -2 -25 6 -41 37 -75
21 -24 39 -48 39 -55 0 -14 20 -22 38 -15 14 5 16 42 2 42 -5 0 -28 17 -51 37
-40 36 -41 38 -37 97 2 51 0 61 -15 64 -9 2 -20 -3 -23 -11z m31 -7 c3 -5 1
-10 -4 -10 -6 0 -11 5 -11 10 0 6 2 10 4 10 3 0 8 -4 11 -10z"/>
<path d="M177 613 c-13 -12 -7 -34 11 -40 24 -9 242 -225 236 -234 -6 -11 28
-28 44 -22 19 7 14 31 -10 44 -33 16 -228 210 -239 237 -8 21 -29 29 -42 15z
m283 -273 c0 -5 -2 -10 -4 -10 -3 0 -8 5 -11 10 -3 6 -1 10 4 10 6 0 11 -4 11
-10z"/>
<path d="M367 546 c-8 -21 22 -51 36 -37 6 6 22 11 35 11 21 0 24 -3 18 -27
-13 -54 -12 -58 14 -58 27 0 26 -1 12 75 -6 30 -11 35 -37 37 -16 1 -40 4 -51
8 -14 4 -23 2 -27 -9z m33 -16 c0 -5 -2 -10 -4 -10 -3 0 -8 5 -11 10 -3 6 -1
10 4 10 6 0 11 -4 11 -10z"/>
<path d="M606 544 c-4 -9 -2 -22 3 -28 5 -6 9 -81 10 -166 l1 -154 -62 -63
c-66 -67 -67 -65 12 -65 19 0 41 -5 48 -11 9 -7 17 -6 28 4 12 13 12 18 1 33
-11 16 -17 16 -34 6 -11 -7 -28 -10 -38 -6 -15 5 -12 12 25 47 l42 40 -1 161
c-1 106 3 166 10 175 9 10 8 17 -1 28 -16 20 -36 19 -44 -1z"/>
<path d="M526 513 c-4 -9 -2 -21 4 -27 6 -6 10 -63 10 -137 l0 -127 -35 -36
c-19 -20 -42 -36 -51 -36 -10 0 -14 -7 -12 -22 4 -28 36 -36 44 -11 4 10 23
35 42 55 l35 37 -1 137 c-1 82 3 141 9 144 15 10 -1 40 -21 40 -10 0 -21 -8
-24 -17z m34 -3 c0 -5 -5 -10 -11 -10 -5 0 -7 5 -4 10 3 6 8 10 11 10 2 0 4
-4 4 -10z"/>
<path d="M1117 474 c-3 -4 -20 -7 -36 -8 -50 -2 -69 -28 -67 -95 1 -32 7 -65
14 -73 6 -8 9 -17 6 -21 -3 -3 3 -10 14 -16 15 -8 23 -7 31 3 15 18 5 43 -20
49 -15 4 -19 14 -19 54 0 27 5 54 12 61 14 14 64 16 73 2 10 -16 36 2 33 24
-3 21 -28 33 -41 20z m-47 -194 c0 -5 -2 -10 -4 -10 -3 0 -8 5 -11 10 -3 6 -1
10 4 10 6 0 11 -4 11 -10z"/>
<path d="M263 403 c-17 -6 -16 -43 1 -43 17 0 151 -135 151 -152 0 -7 -12 -19
-27 -26 -34 -16 -39 -52 -8 -52 11 0 24 8 27 18 4 9 17 28 30 41 l24 25 -81
81 c-44 44 -80 85 -80 92 0 13 -20 22 -37 16z"/>
<path d="M146 364 c-7 -19 1 -34 18 -34 15 0 106 -94 106 -110 0 -12 37 -13
44 -1 9 14 -4 41 -20 41 -18 0 -106 88 -99 99 3 5 -2 12 -11 15 -24 9 -31 7
-38 -10z"/>
<path d="M698 199 c2 -61 -1 -95 -9 -105 -10 -12 -9 -18 4 -31 23 -23 52 0 36
28 -5 11 -9 47 -7 80 l3 61 46 -44 c25 -24 48 -52 52 -61 9 -23 37 -33 47 -17
10 16 2 40 -14 40 -6 0 -43 32 -81 70 -38 39 -72 70 -75 70 -3 0 -4 -41 -2
-91z"/>
</g>
</svg>
